<svg xmlns="http://www.w3.org/2000/svg" viewBox="0 0 1200 630" fill="none">
  <defs>
    <linearGradient id="cardBg" x1="0" y1="0" x2="1" y2="1">
      <stop offset="0%" stop-color="#1a237e"/>
      <stop offset="50%" stop-color="#4051b5"/>
      <stop offset="100%" stop-color="#5c6bc0"/>
    </linearGradient>
    <linearGradient id="accent" x1="0" y1="0" x2="1" y2="0">
      <stop offset="0%" stop-color="#7c4dff"/>
      <stop offset="100%" stop-color="#448aff"/>
    </linearGradient>
  </defs>
  <rect width="1200" height="630" fill="url(#cardBg)"/>
  <rect x="0" y="0" width="1200" height="6" fill="url(#accent)"/>
  <g transform="translate(80,80)">
    <rect width="88" height="88" rx="18" fill="#fff" opacity="0.15"/>
    <path d="M14 62V14h12a24 24 0 0124 24v12a24 24 0 01-24 24H14zm12-12h16a12 12 0 0012-12V26a12 12 0 00-12-12H26v36z" fill="#fff" fill-opacity="0.9"/>
    <rect x="26" y="26" width="12" height="12" rx="3" fill="#4051b5"/>
    <rect x="62" y="14" width="12" height="12" rx="3" fill="#fff" fill-opacity="0.7"/>
  </g>
  <text x="200" y="130" font-family="Inter,Segoe UI,sans-serif" font-size="56" font-weight="700" fill="#fff">OpenCode Initializer</text>
  <text x="200" y="185" font-family="Inter,Segoe UI,sans-serif" font-size="26" font-weight="400" fill="#c5cae9">One command. Complete AI dev environment.</text>
  <rect x="200" y="215" width="98" height="30" rx="6" fill="#fff" opacity="0.15"/>
  <text x="216" y="236" font-family="JetBrains Mono,monospace" font-size="13" font-weight="600" fill="#c5cae9">MIT LICENSE</text>
  <line x1="80" y1="280" x2="1120" y2="280" stroke="#fff" stroke-opacity="0.1" stroke-width="2"/>
  <text x="80" y="330" font-family="Inter,Segoe UI,sans-serif" font-size="18" font-weight="500" fill="#9fa8da">* 38 modules &#183; 24 LLM providers &#183; 21 MCP servers &#183; 15 plugins &#183; 13 LSPs &#183; 350+ assertions</text>
  <text x="80" y="365" font-family="Inter,Segoe UI,sans-serif" font-size="18" font-weight="500" fill="#9fa8da">* 8 languages (Node, Python, Go, Rust, Java, .NET, Zig, Bun) &#183; GPU auto-detection &#183; multi-vendor NPU</text>
  <text x="80" y="400" font-family="Inter,Segoe UI,sans-serif" font-size="18" font-weight="500" fill="#9fa8da">* apt/dnf/pacman/apk/zypper/brew &#183; amd64/arm64 &#183; WSL2 &amp; Linux &#183; modular architecture</text>
  <g transform="translate(80,460)">
    <rect width="140" height="44" rx="10" fill="#fff" opacity="0.12"/>
    <text x="70" y="30" font-family="Inter,Segoe UI,sans-serif" font-size="16" font-weight="600" fill="#fff" text-anchor="middle">bash setup.sh</text>
  </g>
  <text x="250" y="490" font-family="JetBrains Mono,monospace" font-size="14" fill="#7986cb">* The one command that unlocks everything.</text>
  <text x="80" y="590" font-family="Inter,Segoe UI,sans-serif" font-size="14" fill="#5c6bc0">github.com/AlexanderNarbaev/opencode_initializer</text>
  <text x="1120" y="590" font-family="Inter,Segoe UI,sans-serif" font-size="14" fill="#5c6bc0" text-anchor="end">v2.0.0</text>
</svg>
